<?xml version="1.0" encoding="UTF-8"?>
<svg id="Layer_2" data-name="Layer 2" xmlns="http://www.w3.org/2000/svg" xmlns:xlink="http://www.w3.org/1999/xlink" viewBox="0 0 1059.26 268.94">
  <defs>
    <style>
      .cls-1 {
        fill: url(#linear-gradient-2);
      }

      .cls-2 {
        fill: #bcbec0;
        font-family: BladeRunnerMovieFont, 'Blade Runner Movie Font';
        font-size: 188.09px;
      }

      .cls-3 {
        fill: url(#linear-gradient-3);
      }

      .cls-4 {
        fill: url(#linear-gradient);
      }
    </style>
    <linearGradient id="linear-gradient" x1="240.85" y1="-100.83" x2="64.49" y2="240.56" gradientUnits="userSpaceOnUse">
      <stop offset="0" stop-color="#86518c"/>
      <stop offset="1" stop-color="#495861"/>
    </linearGradient>
    <linearGradient id="linear-gradient-2" x1="202.69" y1="-120.55" x2="26.33" y2="220.84" xlink:href="#linear-gradient"/>
    <linearGradient id="linear-gradient-3" x1="316.45" y1="-61.78" x2="140.09" y2="279.61" xlink:href="#linear-gradient"/>
  </defs>
  <g id="Layer_1-2" data-name="Layer 1">
    <g>
      <path class="cls-4" d="m256.03,77.35l-123.04,40.51L74.04,14.51C92.24,5.31,112.72,0,134.48,0c53.7,0,100.02,31.72,121.55,77.35Z"/>
      <path class="cls-1" d="m0,134.47C0,91.95,19.88,54.07,50.78,29.41l61.44,107.71-19.5,125.09C38.97,244.6,0,194.04,0,134.47Z"/>
      <path class="cls-3" d="m134.48,268.94c-5,0-9.9-.32-14.75-.85l19.21-123.15,126.25-41.54c2.37,9.99,3.76,20.36,3.76,31.07,0,74.15-60.32,134.47-134.47,134.47Z"/>
    </g>
    <text class="cls-2" transform="translate(312.72 198.78)"><tspan x="0" y="0">Cinefy</tspan></text>
  </g>
</svg>